<svg xmlns="http://www.w3.org/2000/svg" viewBox="0 0 800 600" preserveAspectRatio="xMidYMid slice">
  <defs>
    <linearGradient id="sky2" x1="0" y1="0" x2="0" y2="1"><stop offset="0%" stop-color="#04102a"/><stop offset="100%" stop-color="#0a0530"/></linearGradient>
    <linearGradient id="a1" x1="0" y1="0" x2="1" y2="1"><stop offset="0%" stop-color="#00ffa3" stop-opacity=".6"/><stop offset="100%" stop-color="#00ffa3" stop-opacity="0"/></linearGradient>
    <linearGradient id="a2" x1="0" y1="0" x2="1" y2="1"><stop offset="0%" stop-color="#ff6ec7" stop-opacity=".5"/><stop offset="100%" stop-color="#3a7bff" stop-opacity="0"/></linearGradient>
  </defs>
  <rect width="800" height="600" fill="url(#sky2)"/>
  <path d="M0 200 Q200 60 400 200 T800 200 L800 360 Q600 230 400 360 T0 360 Z" fill="url(#a1)"/>
  <path d="M0 280 Q200 140 400 280 T800 280 L800 440 Q600 320 400 440 T0 440 Z" fill="url(#a2)"/>
  <g fill="#fff"><circle cx="120" cy="90" r="1.4"/><circle cx="360" cy="60" r="1.2"/><circle cx="600" cy="100" r="1.5"/><circle cx="720" cy="70" r="1.1"/><circle cx="500" cy="120" r="1.2"/></g>
</svg>
