<svg xmlns="http://www.w3.org/2000/svg" viewBox="0 0 800 600" preserveAspectRatio="xMidYMid slice">
  <defs>
    <radialGradient id="c" cx="50%" cy="38%" r="75%">
      <stop offset="0%" stop-color="#2a1b66"/><stop offset="45%" stop-color="#120a35"/><stop offset="100%" stop-color="#04020f"/>
    </radialGradient>
    <radialGradient id="neb" cx="50%" cy="40%" r="50%">
      <stop offset="0%" stop-color="#ff6ec7" stop-opacity=".5"/><stop offset="60%" stop-color="#3a7bff" stop-opacity=".15"/><stop offset="100%" stop-color="#000" stop-opacity="0"/>
    </radialGradient>
  </defs>
  <rect width="800" height="600" fill="url(#c)"/>
  <ellipse cx="400" cy="250" rx="360" ry="200" fill="url(#neb)"/>
  <g fill="#fff">
    <circle cx="80" cy="90" r="1.6"/><circle cx="180" cy="160" r="1.1"/><circle cx="300" cy="70" r="1.8"/><circle cx="420" cy="130" r="1.2"/>
    <circle cx="560" cy="80" r="1.6"/><circle cx="680" cy="150" r="1.3"/><circle cx="740" cy="60" r="1.1"/><circle cx="120" cy="300" r="1.2"/>
    <circle cx="240" cy="380" r="1.5"/><circle cx="520" cy="330" r="1.2"/><circle cx="640" cy="420" r="1.6"/><circle cx="710" cy="320" r="1.1"/>
    <circle cx="60" cy="480" r="1.4"/><circle cx="360" cy="500" r="1.2"/><circle cx="470" cy="450" r="1.1"/><circle cx="780" cy="500" r="1.3"/>
  </g>
  <g fill="#bfe0ff" opacity=".8"><circle cx="200" cy="240" r="2.4"/><circle cx="600" cy="220" r="2.2"/><circle cx="430" cy="300" r="2.6"/></g>
</svg>
