<svg xmlns="http://www.w3.org/2000/svg" viewBox="0 0 800 600" preserveAspectRatio="xMidYMid slice">
  <defs>
    <linearGradient id="sky" x1="0" y1="0" x2="0" y2="1">
      <stop offset="0%" stop-color="#1a0b3a"/><stop offset="55%" stop-color="#3a1860"/><stop offset="100%" stop-color="#6a2a55"/>
    </linearGradient>
    <linearGradient id="bld" x1="0" y1="0" x2="0" y2="1">
      <stop offset="0%" stop-color="#0e0820"/><stop offset="100%" stop-color="#22113f"/>
    </linearGradient>
  </defs>
  <rect width="800" height="600" fill="url(#sky)"/>
  <circle cx="620" cy="130" r="58" fill="#ffe9a8" opacity=".9"/>
  <circle cx="600" cy="118" r="58" fill="url(#sky)" opacity=".55"/>
  <g fill="url(#bld)">
    <rect x="20" y="360" width="70" height="240"/><rect x="100" y="300" width="60" height="300"/><rect x="170" y="400" width="80" height="200"/>
    <rect x="260" y="260" width="64" height="340"/><rect x="334" y="350" width="70" height="250"/><rect x="414" y="300" width="54" height="300"/>
    <rect x="478" y="390" width="80" height="210"/><rect x="566" y="280" width="60" height="320"/><rect x="636" y="360" width="74" height="240"/><rect x="716" y="320" width="70" height="280"/>
  </g>
  <g fill="#ffd23b" opacity=".85">
    <rect x="36" y="380" width="8" height="10"/><rect x="60" y="410" width="8" height="10"/><rect x="118" y="330" width="8" height="10"/><rect x="134" y="380" width="8" height="10"/>
    <rect x="278" y="290" width="8" height="10"/><rect x="296" y="340" width="8" height="10"/><rect x="430" y="330" width="8" height="10"/><rect x="586" y="310" width="8" height="10"/>
    <rect x="652" y="390" width="8" height="10"/><rect x="734" y="350" width="8" height="10"/><rect x="350" y="380" width="8" height="10"/><rect x="500" y="420" width="8" height="10"/>
  </g>
</svg>
