<svg xmlns="http://www.w3.org/2000/svg" viewBox="0 0 800 600" preserveAspectRatio="xMidYMid slice">
  <defs>
    <linearGradient id="gvsky" x1="0" y1="0" x2="0" y2="1">
      <stop offset="0%" stop-color="#101a36"/><stop offset="55%" stop-color="#3a3a66"/><stop offset="100%" stop-color="#8a7a8c"/>
    </linearGradient>
    <radialGradient id="gvglow" cx="50%" cy="35%" r="45%">
      <stop offset="0%" stop-color="#fff4d8" stop-opacity=".5"/><stop offset="100%" stop-color="#fff4d8" stop-opacity="0"/>
    </radialGradient>
  </defs>
  <rect width="800" height="600" fill="url(#gvsky)"/>
  <rect width="800" height="600" fill="url(#gvglow)"/>
  <g fill="#3a4a3a" opacity=".7">
    <path d="M0 470 L200 450 L400 470 L600 448 L800 468 L800 600 L0 600 Z"/>
  </g>
  <g fill="#6a6a72">
    <rect x="360" y="380" width="80" height="150" rx="6"/><rect x="372" y="350" width="56" height="44" rx="20"/>
  </g>
  <rect x="378" y="404" width="44" height="6" fill="#4a4a52"/>
  <g fill="#ffcf6e" opacity=".85"><circle cx="350" cy="520" r="6"/><circle cx="450" cy="522" r="6"/></g>
  <g fill="#ff9ec0" opacity=".75"><circle cx="330" cy="540" r="5"/><circle cx="470" cy="540" r="5"/><circle cx="400" cy="548" r="5"/></g>
  <g fill="#fff" opacity=".6"><circle cx="160" cy="100" r="1.2"/><circle cx="620" cy="90" r="1.3"/><circle cx="500" cy="130" r="1"/></g>
</svg>
