<svg xmlns="http://www.w3.org/2000/svg" viewBox="0 0 800 600" preserveAspectRatio="xMidYMid slice">
  <defs>
    <linearGradient id="rsky" x1="0" y1="0" x2="0" y2="1">
      <stop offset="0%" stop-color="#0a0f1e"/><stop offset="60%" stop-color="#16203a"/><stop offset="100%" stop-color="#202a40"/>
    </linearGradient>
    <linearGradient id="rbld" x1="0" y1="0" x2="0" y2="1">
      <stop offset="0%" stop-color="#070b16"/><stop offset="100%" stop-color="#10182c"/>
    </linearGradient>
  </defs>
  <rect width="800" height="600" fill="url(#rsky)"/>
  <g fill="url(#rbld)">
    <rect x="0" y="380" width="120" height="220"/><rect x="120" y="320" width="90" height="280"/><rect x="210" y="420" width="110" height="180"/>
    <rect x="320" y="350" width="100" height="250"/><rect x="420" y="400" width="90" height="200"/><rect x="510" y="330" width="110" height="270"/><rect x="620" y="390" width="180" height="210"/>
  </g>
  <g stroke="#7fa6d8" stroke-width="1.4" opacity=".45">
    <line x1="60" y1="20" x2="40" y2="120"/><line x1="160" y1="0" x2="138" y2="110"/><line x1="260" y1="40" x2="240" y2="150"/>
    <line x1="360" y1="10" x2="338" y2="120"/><line x1="460" y1="30" x2="438" y2="140"/><line x1="560" y1="0" x2="540" y2="110"/>
    <line x1="660" y1="50" x2="640" y2="160"/><line x1="740" y1="20" x2="720" y2="130"/><line x1="120" y1="200" x2="100" y2="310"/>
    <line x1="320" y1="220" x2="300" y2="330"/><line x1="520" y1="190" x2="500" y2="300"/><line x1="700" y1="230" x2="680" y2="340"/>
  </g>
  <ellipse cx="400" cy="580" rx="380" ry="30" fill="#2a3a58" opacity=".4"/>
</svg>
