<svg xmlns="http://www.w3.org/2000/svg" viewBox="0 0 800 600" preserveAspectRatio="xMidYMid slice">
  <defs>
    <linearGradient id="rfsky" x1="0" y1="0" x2="0" y2="1">
      <stop offset="0%" stop-color="#06122e"/><stop offset="55%" stop-color="#142a52"/><stop offset="100%" stop-color="#2a4a78"/>
    </linearGradient>
    <linearGradient id="rffloor" x1="0" y1="0" x2="0" y2="1">
      <stop offset="0%" stop-color="#1a2438"/><stop offset="100%" stop-color="#0c1220"/>
    </linearGradient>
  </defs>
  <rect width="800" height="600" fill="url(#rfsky)"/>
  <circle cx="160" cy="110" r="44" fill="#eaf2ff" opacity=".92"/>
  <circle cx="146" cy="100" r="44" fill="url(#rfsky)" opacity=".5"/>
  <g fill="#0a1426" opacity=".9">
    <rect x="0" y="360" width="90" height="120"/><rect x="100" y="330" width="70" height="150"/><rect x="640" y="340" width="80" height="140"/><rect x="730" y="360" width="70" height="120"/>
  </g>
  <g fill="#ffd23b" opacity=".7"><rect x="20" y="380" width="6" height="8"/><rect x="120" y="350" width="6" height="8"/><rect x="660" y="360" width="6" height="8"/><rect x="750" y="380" width="6" height="8"/></g>
  <rect x="0" y="470" width="800" height="130" fill="url(#rffloor)"/>
  <rect x="0" y="464" width="800" height="12" fill="#34507a"/>
  <g fill="#fff" opacity=".75"><circle cx="300" cy="80" r="1.3"/><circle cx="460" cy="60" r="1.1"/><circle cx="560" cy="120" r="1.2"/><circle cx="380" cy="140" r="1"/></g>
</svg>
