<svg xmlns="http://www.w3.org/2000/svg" viewBox="0 0 800 600" preserveAspectRatio="xMidYMid slice">
  <defs>
    <linearGradient id="shsky" x1="0" y1="0" x2="0" y2="1">
      <stop offset="0%" stop-color="#0e1430"/><stop offset="60%" stop-color="#2a2050"/><stop offset="100%" stop-color="#5a3a66"/>
    </linearGradient>
    <linearGradient id="shtorii" x1="0" y1="0" x2="0" y2="1">
      <stop offset="0%" stop-color="#ff5a3c"/><stop offset="100%" stop-color="#c43020"/>
    </linearGradient>
  </defs>
  <rect width="800" height="600" fill="url(#shsky)"/>
  <circle cx="640" cy="120" r="50" fill="#fff4d8" opacity=".9"/>
  <g fill="url(#shtorii)">
    <rect x="180" y="200" width="36" height="360"/><rect x="584" y="200" width="36" height="360"/>
    <rect x="140" y="180" width="520" height="34" rx="6"/><rect x="160" y="250" width="480" height="26"/>
  </g>
  <g fill="#2a1410" opacity=".6">
    <path d="M0 560 L160 540 L320 560 L480 540 L640 560 L800 545 L800 600 L0 600 Z"/>
  </g>
  <g fill="#ffd98a" opacity=".7"><circle cx="120" cy="80" r="1.3"/><circle cx="360" cy="60" r="1.1"/><circle cx="540" cy="90" r="1.2"/><circle cx="720" cy="200" r="1.4"/></g>
  <g fill="#ffeec8" opacity=".5"><circle cx="300" cy="420" r="3"/><circle cx="500" cy="440" r="2.6"/><circle cx="400" cy="400" r="2.2"/></g>
</svg>
